<svg xmlns="http://www.w3.org/2000/svg" viewBox="0 0 414.29 427.22"><defs><style>.cls-1{fill:#c86d1c;stroke:#042d2d;stroke-miterlimit:10;stroke-width:1.2px;}.cls-2{fill:#042d2d;}</style></defs><g id="Capa_1" data-name="Capa 1"><path class="cls-1" d="M232.09,139.08c-4.64-.07-9.28,0-13.92,0s-9.28,0-13.92,0c-1.49,0-2.06-.2-1.75-2q2.75-15.57,5.22-31.19c.24-1.52.79-2,2.26-1.93q8.18.1,16.38,0c1.46,0,2,.43,2.26,1.93q2.49,15.61,5.22,31.19C234.15,138.88,233.58,139.1,232.09,139.08Z"/><path class="cls-1" d="M312.13,139.05h-3q-37.44,0-74.86,0c-2.19,0-3.29-.25-3.66-2.89-1.46-10.09-3.25-20.12-5-30.15-.28-1.61,0-2,1.65-2q30.06.06,60.11,0A2.78,2.78,0,0,1,290,105.4q10.77,16.27,21.63,32.5A9.48,9.48,0,0,1,312.13,139.05Z"/><path class="cls-1" d="M216.17,106.12c-1.76,10.13-3.53,20.25-5.07,30.42-.33,2.18-1.16,2.56-3.11,2.55q-36.48-.08-73,0h-5.68c7.79-11.68,15.22-22.8,22.61-33.94a2.35,2.35,0,0,1,2.27-1.09q30.19,0,60.38,0C216.42,104,216.42,104.67,216.17,106.12Z"/><path class="cls-1" d="M298.57,322.12H142.7a13.33,13.33,0,0,1-13.34-13.33V139.58H311.91V308.79A13.33,13.33,0,0,1,298.57,322.12Z"/><path class="cls-2" d="M240.63,191.81c-4.29-2.5-8.37-4.59-12.32-7.21-3.76-2.49-7.34-2.5-11.09,0-3.46,2.33-7,4.16-10.53,6.26-1.25.76-1.8.5-1.79-2.19q.09-25,0-50c0-2.28.38-3.07,1.73-3.05q16.16.1,32.32,0c1.1,0,1.7.35,1.69,2.63C240.61,155.91,240.63,173.53,240.63,191.81Z"/><path class="cls-2" d="M238.57,138c-5.26-.07-10.53,0-15.79,0s-10.54-.05-15.8,0c-1.69,0-2.34-.2-2-2q3.12-15.57,5.92-31.19c.28-1.52.9-1.95,2.57-1.93q9.28.1,18.58,0c1.67,0,2.3.43,2.57,1.94q2.84,15.6,5.93,31.18C240.91,137.76,240.26,138,238.57,138Z"/><path class="cls-2" d="M145.84,269.89a6.9,6.9,0,0,1,5.63-5.07c3.28-.5,5.51,2,8.3,3.2a11.84,11.84,0,0,0,13.55-3.5c.5-.63-.38-1.52-.88-.89a10.55,10.55,0,0,1-7.62,4,10,10,0,0,1-4.24-.6,33.26,33.26,0,0,1-4.31-2.43,8,8,0,0,0-11.63,5c-.19.78,1,1.11,1.2.33Z"/><path class="cls-2" d="M148.71,277.84A77.13,77.13,0,0,0,173,275.15a.62.62,0,0,0-.33-1.2,76.2,76.2,0,0,1-24,2.64c-.8,0-.8,1.21,0,1.25Z"/><path class="cls-2" d="M148.71,288.25A77.12,77.12,0,0,0,173,285.57a.63.63,0,0,0-.33-1.21,75.91,75.91,0,0,1-24,2.64c-.8,0-.8,1.22,0,1.25Z"/></g></svg>