<svg xmlns="http://www.w3.org/2000/svg" viewBox="0 0 414.29 427.22"><defs><style>.cls-1{fill:#042d2d;}.cls-2{fill:#cee4dc;}.cls-2,.cls-3{stroke:#042d2d;stroke-miterlimit:10;}.cls-3{fill:#e1ac38;stroke-width:1.2px;}</style></defs><g id="Capa_1" data-name="Capa 1"><rect class="cls-1" x="132.34" y="83.71" width="149.61" height="273.35" rx="12.43"/><path class="cls-2" d="M266.23,196.61c-1.22,37.9-3.71,48.72-2.24,71.21.36,5.53.29,11.11,1,16.62,1.28,10.42.19,16.11.64,30.45.12,3.7.24,6.74.32,8.71-2,0-5.12,0-9,0-8-.08-10.91-.32-16.14-.3-6.16,0-10.39.65-13.85.62-10-.08-26.64-.51-36.46.91-11.86,1.71-31.51,2.78-43.37-.91.39-7.66.92-19.31,1.27-33.56.28-11.33.25-16.1.53-41.57.24-21.65.36-32.47.52-38.79.74-29.59,1.62-27.53,1.54-44.95-.06-11.68.16-23.37,0-35.05-.08-5.22.56-10.44.55-15.66,0-6-.27-7.92,1.18-9.68,2.35-2.84,6.5-1.89,16.35-1.37s2.62-.58,27.6.07c11.41.3,9.69.44,14.47.48,27,.21,40.52.32,49.38-.94,1.2-.17,3.55-.52,5.48.8,4.33,3,2.81,11.78,1.94,19.45-1.16,10.25-.11,20.64-.82,30.93C265.86,171.09,267.13,168.37,266.23,196.61Z"/><circle class="cls-3" cx="207.14" cy="338.23" r="9.73"/><path class="cls-1" d="M193.39,201.1l26.4,26.41c.49.49,3.1-.6,2.74-1l-26.4-26.4c-.49-.49-3.1.6-2.74.95Z"/><path class="cls-1" d="M220,200.55,193.61,227c-1.18,1.17,1.66,1.07,2.3.42L222.32,201c1.17-1.18-1.66-1.07-2.31-.42Z"/></g></svg>