<svg xmlns="http://www.w3.org/2000/svg" viewBox="0 0 414.29 427.22"><defs><style>.cls-1{fill:#c86d1c;}.cls-1,.cls-2{stroke:#042d2d;stroke-miterlimit:10;stroke-width:1.2px;}.cls-2{fill:#f5f4f0;}</style></defs><g id="Capa_1" data-name="Capa 1"><path class="cls-1" d="M292,125.47c-.27,4.81-.35,5.11-5.28,4.92-11.5-.42-23-1.26-34.48-1.59a845.11,845.11,0,0,0-88.47,1.69c-9.21.7-18.4,1.93-27.6,2.68-5.8.48-5.94.23-6-5.52q-.07-9,.06-18c.08-6.23.14-6.46,6-7.24,8.16-1.11,16.35-2.38,24.56-2.74,19.74-.86,39.47-2.17,59.24-1.6q30.38.81,60.75,1.66c1.73,0,3.46.47,5.2.56,2.34.13,3.8,1.17,4,3.57C290.57,111.06,292.44,118.15,292,125.47Z"/><path class="cls-1" d="M292.08,249.61h-.68q0,40.56,0,81.09c0,6.25-.36,12.49-.31,18.74.06,5,.22,5.08-4.61,5.14-10.76.11-21.54-.2-32.28.23-37.27,1.51-74.56,1.34-111.84,1.11-1.76,0-3.5,0-5.26-.11-5.86-.31-5.89-.33-7.26-6.26-6.84-29.71-8.13-59.89-7.48-90.24C123,230.78,125.85,202.4,128,174c.61-8,1.14-16,1.48-24,.14-3.3,1.19-4.81,4.75-5.17,44.88-4.55,89.82-6.39,134.9-3.55,5.5.34,11,.34,16.49.84,6,.54,6.17.86,6.24,6.88q.18,20.64.2,41.3C292.11,210.07,292.08,229.84,292.08,249.61Z"/><path class="cls-2" d="M209.59,237.19h55.59a67.5,67.5,0,0,1,7.12.18c5.39.58,7.53,2.82,7.75,8.31a43.42,43.42,0,0,1-.53,8.52,340.82,340.82,0,0,0-3.79,73.11c.36,6.4-.43,7.18-6.78,6.31a36.06,36.06,0,0,0-11.31.08,33.7,33.7,0,0,1-9.92.31c-18-2.39-36.06-1-54.09-.54-12.11.32-24.24.42-36.27,2.12a15,15,0,0,1-2.84.15c-11.34-.7-11.56-2.69-11.16-11.52a452.07,452.07,0,0,0-.67-47,239.86,239.86,0,0,1,.12-32.06c.65-8.59.68-8.61,9-8.62h57.74Z"/></g></svg>