<svg xmlns="http://www.w3.org/2000/svg" viewBox="0 0 414.29 427.22"><defs><style>.cls-1{fill:#042d2d;}.cls-2{fill:#e1ac38;stroke:#042d2d;stroke-miterlimit:10;stroke-width:1.2px;}</style></defs><g id="Capa_1" data-name="Capa 1"><path class="cls-1" d="M237.11,304.79c2-.18,3.92-2.23,2.62-4.52l-22.06-38.71c-7.25-12.72-13.56-24.77-14.79-39.62a201.49,201.49,0,0,1,.05-32.31c.87-.16,1.79-.37,2.73-.59a25.81,25.81,0,0,0,17,.54c1.69-.28,3.37-.61,5-1a55.32,55.32,0,0,0,11.1-2.29c17-5.55,33.24-24.88,38.61-41.76.56-1.74-1.87-4.32-3.57-4.3-23.82.36-51.3,5.71-67.42,23.49q.87-4.67,1.89-9.27l.18-.43c2.21-5.32,4.83-10.39,7.39-15.4a3.47,3.47,0,0,0,1.59-3.13C223.66,123.2,229,111,226.76,96c-2.67-18-13.06-33.95-22.89-48.81-.67-1-3.16-3.06-4.1-1.28-15.68,29.78-13,65.17,6,92.55-1.61,5.86-3.07,11.82-4.34,17.86a111,111,0,0,0-3.76,13.52c-14.1-22.24-51.38-30.3-71.74-41.63a2,2,0,0,0-2.76,2.64A88.59,88.59,0,0,0,187,184.24L190.1,186a38.77,38.77,0,0,0,5.12,2.55,135.76,135.76,0,0,0,1,26.17c.15,3.24.37,6.46.69,9.66,1.13,11,4.86,20.72,9.85,30.28,6.93,17.81,16.35,34.81,26.66,50.73C235,307.86,238.68,307.76,237.11,304.79ZM195.32,101.52c.22.71.45,1.43.7,2.14a72.25,72.25,0,0,0,2.7,10.23,47.24,47.24,0,0,0,1.2,5.55A83.25,83.25,0,0,1,195.32,101.52Z"/><path d="M211.52,236.78h3.78l0-.25C214.56,237.05,213,235.26,211.52,236.78Z"/><path class="cls-2" d="M285.08,250.33q-13.27,0-26.56.19c-14.83.23-29.66.57-44.49.81-3.73.06-4.54-.11-4.76-2.6H205.1c-.27,3.31-1.9,2.65-4.9,2.67-12.45,0-24.89.25-37.33.37-9.57.1-19.14,0-28.71.25-5.65.12-5.79.44-5,5.73.39,2.6.42,5.32,1.27,7.76,5,14.27,7.58,29.13,11.13,43.76,5,20.67,9.68,41.43,14.5,62.16,1.82,7.82,1.82,8,9.45,8.72,9.05.8,18.13,1.44,27.21,1.67,16,.39,32.06.17,48-2.24,8.32-1.26,8.28-1.25,10.31-9.23,4.85-19,10.24-37.84,16.56-56.42,6.55-19.26,14-38.16,22.07-56.82C292.4,250.78,292.08,250.34,285.08,250.33Z"/></g></svg>