<svg xmlns="http://www.w3.org/2000/svg" viewBox="0 0 414.29 427.22"><defs><style>.cls-1,.cls-3{fill:#c86d1c;}.cls-2{fill:#e1ac38;stroke-width:1.2px;}.cls-2,.cls-3{stroke:#042d2d;stroke-miterlimit:10;}.cls-4{fill:#06352c;}</style></defs><g id="Capa_1" data-name="Capa 1"><path class="cls-1" d="M181.58,138.58l26.38.11c1.35,0,2.34-1.83.61-2.17l-35.34-7c-1.46-.29-2.91,1.75-1,2.16L183.37,134l.61-2.17-6.77.64a1.82,1.82,0,0,0-1.51.9.87.87,0,0,0,.56,1.18,197,197,0,0,0,27,5l.62-2.16A128.12,128.12,0,0,1,178.84,136c-1.45-.23-2.92,1.76-1,2.15a176.62,176.62,0,0,0,53.45,2.74c1.89-.19,4-.32,5.12-2.05,1-1.44.78-3.31.49-4.93l-2.9.77a76.37,76.37,0,0,0,5.91,11.83c.66,1.09,2.53.21,2.79-.75a15.47,15.47,0,0,0,.39-6.17c-.17-1.37-3.08-.65-2.9.78a14.32,14.32,0,0,1-.43,5.6l2.8-.75a72.83,72.83,0,0,1-5.66-11.31c-.52-1.32-3.15-.64-2.9.77a7.27,7.27,0,0,1,.12,2.67c-.23,1.13-.83,1.18-1.87,1.29q-3.84.41-7.69.64c-5.08.31-10.17.41-15.26.27A175.34,175.34,0,0,1,178.84,136l-1,2.15a131.06,131.06,0,0,0,25.8,1.44c1.29,0,2.43-2,.62-2.16a193.15,193.15,0,0,1-26.35-4.81l-.95,2.08,6.77-.63c1.3-.12,2.4-1.79.62-2.17l-11.13-2.35-1,2.16,35.34,7,.62-2.17-26.38-.1c-1.67,0-2.2,2.17-.24,2.17Z"/><path class="cls-1" d="M159,141.79a239.62,239.62,0,0,0,66.55,7.35c8.09-.27,23.84,1.33,26.6-8.9,1.44-5.37-2.6-10.88-7.7-12.29a13.8,13.8,0,0,0-13.55,4l11.78,9.09q-5.66-.88-3.94,1.5a8.13,8.13,0,0,1,.76,1.83l3.44-8.47c-3,1.45-6.58,1-9.8.86-4.51-.24-9-.61-13.51-1-8.67-.79-17.33-1.8-26-2.86-3.72-.46-7.74-.58-11.34-1.73-3.23-1-5.55-3.67-8.94-4.46-3.75-.88-7,.31-10,2.42a32.19,32.19,0,0,1-10.65,5l9.49,7.23c-.17-2-.48-.76.33-1l-5.78-13.7L154.5,128c-5.2,3-4.76,12.53,1.79,13.71l2.64.48-3.31-12.54a34.91,34.91,0,0,1-11.16,8.63c-3.34,1.67-4.43,6.15-3.07,9.37,1.57,3.73,5.07,4.86,8.85,4.34,8-1.1,15.41-4.28,22.91-7.26,6.65-2.64,13.94-5.64,21.25-4.78,4.18.49,8.08,2.37,12.14,3.4a57,57,0,0,0,13.08,1.53c5.26.09,17.53-1.46,20.79,4.3l-.76-5.77-.2,1,7.23-5.51h-.56l6.48,3.71-.31-.56-2.69,10.26.32-.24c3.27-2.44,4.86-6.46,2.69-10.26-1.83-3.22-7-5.11-10.26-2.69l-.32.24c-3.33,2.48-4.81,6.36-2.69,10.26l.3.56a7.56,7.56,0,0,0,6.48,3.72h.56c3.08.08,6.61-2.37,7.23-5.51,2.05-10.35-9.8-16.17-18.38-17.67-5.29-.92-10.57-.78-15.91-.87-5.91-.1-10.89-1.63-16.51-3.3-20.75-6.14-37.11,8.24-56.86,11L152,151.24a45.79,45.79,0,0,0,14.19-11c3.36-3.86,2.67-11.46-3.31-12.54l-2.63-.47L162.07,141l2.21-1.29c7.39-4.31,2.46-15.8-5.78-13.71a14.86,14.86,0,0,0-11.34,15.43c.42,4.87,4.46,8.5,9.5,7.23A41.64,41.64,0,0,0,168,144a31.21,31.21,0,0,0,2.86-1.94q2.34-1.34-1-.66a19.36,19.36,0,0,0,3.57,2.29c7.57,4,17.67,3.9,26,4.89,9,1.06,17.95,2,27,2.72,8.4.63,16.34,1.31,24.14-2.45a7.52,7.52,0,0,0,3.44-8.47c-1.89-5.2-4.53-10.47-10.2-12.29a11.81,11.81,0,0,0-14,5.37c-4,7.33,5.69,15.37,11.78,9.09l-3.83-2.33.76-5.78q3-1.58,1.11-1.22c-.84.09-1.68.17-2.52.23-1.27.11-2.55.2-3.82.29q-5.26.35-10.53.45-10.07.21-20.11-.47A221.77,221.77,0,0,1,163,127.32c-9.36-2.36-13.36,12.1-4,14.47Z"/><path class="cls-1" d="M175,113.44c-1.75,7.27-10,9.29-16.28,11.16-8,2.38-6.63,14.76,2,14.73a58.16,58.16,0,0,0,14.39-1.76c3.8-1,8.64-4.5,12.41-4.37,2,.06,4.69,1.94,6.53,2.66,2.19.86,4.42,1.65,6.67,2.35a101.17,101.17,0,0,0,13.78,3.17c3.73.6,7.29-.66,8.85-4.35,1.29-3.07.37-7.91-3.07-9.36-16.67-7-35.36-6.27-50.88,3.39l10.26,10.26,5.66-11,2.62-5.08c.36-.7,2.66-4.5,1.67-4.23h-4l-2.88-2.73.29,1.35a21.93,21.93,0,0,0,.32,4.24,31.45,31.45,0,0,0,1.3,7.46,17.38,17.38,0,0,0,8.17,9.8c9.51,5,19.18-3.28,21-12.58,1.73-8.82-3.51-20.24-13.61-20.57-11.94-.4-13.16,14.44-15.38,23-1.28,5,2.37,9.17,7.23,9.49l49.23,3.25c7.74.51,9.78-10.28,3.78-14-9.59-5.91-20.75-10.48-32-11.6-12.13-1.2-15.53,11.09-25.29,15.44L198,143.84a29.26,29.26,0,0,1,9.79-10.5c5.24-3.36,4.72-12.08-1.79-13.7a30.53,30.53,0,0,0-18.38.82c-7,2.65-7.16,11.85,0,14.47a45.64,45.64,0,0,0,16.82,2.71c8.1-.2,10.62-13.14,2-14.73l-14.16-2.61-2,14.73,10.56-1-2-14.73a126.94,126.94,0,0,0-19.63,4.62c-7.95,2.55-6.67,14.63,2,14.73l29.22.34-5.3-12.8a31.45,31.45,0,0,1-14.73,9c-2.84.75-3,1.25-4.64-.62-1-1.11-1.68-2.39-2.74-3.42-.75-.73-2.88-3.34-1.7-1l.75,5.78c.35-2.31,4.83-7.87,6.62-10.73a54.14,54.14,0,0,1,3.53-5.42,24,24,0,0,1,1.84-1.93c1.05-.6,1.2-.76.44-.47l-5.3-2.2c1.49,1.28,2.29,4.85,3.17,6.7,1.06,2.2,2.16,4.39,3.42,6.48A39.49,39.49,0,0,0,207.37,141c11.17,7.56,27.24,6.31,39.79,3.87,8-1.56,6.18-12.06,0-14.47l-41.68-16.24c-3.8-1.49-8.19,1.63-9.23,5.23-1.22,4.28,1.5,7.72,5.24,9.23,17.85,7.22,31.1,21.75,51.21,23.38V137l-8.58.88c-4,.41-7.5,3.15-7.5,7.5,0,3.74,3.44,7.92,7.5,7.5l8.58-.88c9.55-1,9.73-14.21,0-15-8.56-.69-16.12-5.23-23.25-9.67-7.81-4.86-15.41-9.71-24-13.17l-4,14.46,41.69,16.25V130.37c-7.62,1.48-16.78,2.31-24.25-.32-6.12-2.16-9.46-7.68-12.29-13.18S202,102.78,194.51,102.3c-7-.46-12.5,5.8-16.12,11.1-2.13,3.12-4,6.41-6.06,9.63-1.75,2.79-4,5.57-4.71,8.84-1,4.66,1.49,6.92,4.55,9.78,1.31,1.23,2.49,3.33,4.07,4.95,10.9,11.11,31.17-1.13,39.5-9.82a7.59,7.59,0,0,0-5.3-12.81l-29.22-.34,2,14.73a128.25,128.25,0,0,1,19.62-4.62c8.28-1.27,6.43-15.55-2-14.73l-10.56,1c-3.71.36-6.9,2.57-7.37,6.5-.4,3.42,1.65,7.54,5.37,8.23l14.16,2.61,2-14.73a33.74,33.74,0,0,1-12.84-2.18v14.47A16.3,16.3,0,0,1,202,134.1l-1.8-13.71a45.25,45.25,0,0,0-15.17,15.88c-4,7,3.73,13.17,10.26,10.26a34.31,34.31,0,0,0,10.41-7.14c1.53-1.55,2.71-3.36,4.1-5,1.26-1.5,1.07-1.24,2.76-1.25,4,0,8.92,2,12.64,3.39a69.22,69.22,0,0,1,12.28,6.18l3.79-14-49.23-3.25L199.3,135c1-3.75,3.22-8.58,3.23-12.48q1.6-3.68-4,.2a1.76,1.76,0,0,1,.51,1c-.09.3-.12,2.65-.12,2.84a3.59,3.59,0,0,1-.76,1.16l1.64.28c0-.34-1.3-2.59-1.4-3.21-.63-3.67-.28-7.43-1.43-11-2.73-8.54-12.41-9.26-17.9-3-2.76,3.16-4.38,7.51-6.28,11.2l-6.11,11.84c-3.28,6.37,3.57,14.42,10.27,10.26,10.58-6.58,24.08-8.32,35.74-3.39l5.77-13.71a100.74,100.74,0,0,1-14.62-3.43c-4.67-1.5-9.22-4.2-14-5.13-5.18-1-9,1.22-13.61,3.1a40.92,40.92,0,0,1-15.5,2.88l2,14.73c11.55-3.44,23.66-8.77,26.76-21.63,2.26-9.38-12.2-13.39-14.46-4Z"/><path class="cls-2" d="M320.77,149.66c0-.09,0-.16,0-.26"/><path class="cls-2" d="M308.62,156.88a4,4,0,0,0,1.37-.56"/><path class="cls-2" d="M122.6,133.73c-1.19-.22-2.35-.49-3.52-.78a101.15,101.15,0,0,0-10.36,3.52,2,2,0,0,0-.78.67,13.54,13.54,0,0,0-1.82-.29,16.87,16.87,0,0,0-2.25,0h0a19.08,19.08,0,0,0-2.06.32c-1.52.33-1.36,2.23-.27,2.85a1.49,1.49,0,0,0,1.1.15c.46-.08.91-.15,1.35-.19h0a10.13,10.13,0,0,1,1.23-.06,1.31,1.31,0,0,0,1.38.47c.37-.07.73-.13,1.09-.17h0A15.36,15.36,0,0,1,112,142a9.48,9.48,0,0,0,3.09,2.4c.42.22.85.41,1.28.63,3.67,2.84,7.27,6.1,11.29,7.48,1.63.75,3.35,1.32,4.78,1.84,7.64,2.81,15.76,4.65,23.63,6.69a227.55,227.55,0,0,0,42.14,7.32,44,44,0,0,0,9.91,1.2h.31a69.18,69.18,0,0,0,12.06-1c1,0,2.06,0,3.08,0s2.25,0,3.38-.07c2.21,0,4.41-.12,6.6-.24H234c1.22.08,2.43.12,3.67.13h.45a100.44,100.44,0,0,0,15.24-1.16c2.47-.37,4.93-.76,7.38-1.15,3.06-.36,6.1-.74,9.14-1.18,4.47-.65,8.91-1.41,13.36-2.28"/><path class="cls-2" d="M154.05,128.67c-1.86.58-3.73,1.07-5.64,1.52"/><path class="cls-2" d="M334.75,178.3c-.1.2-1.36.91-1.48,1.1-4.6,7.32-18.07,6.11-25.43,6.4-9.69.38-19.4.46-29.06,1.26-19.5,1.62-38.29,7.51-57.77,9.27a175,175,0,0,1-56.79-4.23c-9.37-2.25-18.28-5.58-27.41-8.63a74.59,74.59,0,0,0-26.1-3.94c-9.09.22-22.63,1.69-29.82-5.36a10.92,10.92,0,0,1-1-1.08,13.69,13.69,0,0,1-.84-2.67c.31-1.16,1.6-2.1,3-3.27a27,27,0,0,0,3.75-4A48.45,48.45,0,0,0,91.48,153c3.65-8.16,7.35-15.66,14.23-21.69.87-.75,1.75-1.46,2.67-2.16a1.25,1.25,0,0,0,.8-.1c5.67-2.83,11.45-5.79,17.67-7.21,6.62-1.51,13-.8,19.6.12a155.8,155.8,0,0,0,17.87,1.48c-1.07.55-2.15,1-3.24,1.49-.27,0-.53,0-.8-.09-1,.77-2.11,1.5-3.2,2.2"/><path class="cls-2" d="M279.64,163.46c-.61-.13,16.58-21.26,16-21.44a39.84,39.84,0,0,0,.59-13.69c4.35,1.18,8.66,2.38,12.9,3.51,4.55,1.23,10.12,2,13.57,5.48s4.86,9.07,6.37,13.56c1.42,4.14,2.7,8.33,3.79,12.57,1,3.94,3.32,12.22,1.9,14.85"/><path class="cls-2" d="M315.35,148.45a.41.41,0,0,1-.12-.11c-.13-.11-.29-.22-.42-.34"/><path class="cls-3" d="M112,137.19a1.6,1.6,0,0,0-.7.56,12.59,12.59,0,0,0-5.43,0,1.27,1.27,0,0,0-.65,2.13A10.13,10.13,0,0,0,104,140h0c-.44,0-.89.11-1.35.19a1.49,1.49,0,0,1-1.1-.15c-1.09-.62-1.25-2.52.27-2.85a19.08,19.08,0,0,1,2.06-.32h0a16.87,16.87,0,0,1,2.25,0,13.54,13.54,0,0,1,1.82.29,2,2,0,0,1,.78-.67"/><path class="cls-3" d="M165.58,123.46c-1.26.77-2.54,1.48-3.85,2.14-1.14.58-2.28,1.09-3.42,1.55l-1.23-.13c1.09-.7,2.16-1.43,3.2-2.2.27,0,.53.07.8.09,1.09-.45,2.17-.94,3.24-1.49C164.74,123.44,165.15,123.46,165.58,123.46Z"/><path class="cls-3" d="M294.71,147.56c-.16-.14-.33-.25-.48-.39a44.6,44.6,0,0,0,1.4-5.15c.59.18,1.19.31,1.8.45"/><path class="cls-2" d="M252.13,323.37c-4.42-.22-118.08,6.6-140.81-11.86-2.85-2.31-6.63,2.88-10.07,4.11-2.2.78-4.58,1.4-6.88.61-3.61-1.19-3.72-4.41-4-7.58-.72-7.32-3-14.17-5.23-21.14A90.12,90.12,0,0,1,80.55,263,85.9,85.9,0,0,1,92,217.8c7-12.44,15.59-24,19.32-38a120.42,120.42,0,0,1,14.84.08,73.91,73.91,0,0,1,16.63,4.14c19.92,6.92,39.61,12.22,60.82,13,21.38.82,41.49-3.85,62.38-7.6a236.92,236.92,0,0,1,34.16-3.13c4.7-.15,9.61-.09,14.48-.26-.26,12-.61-7.26-.08,4.69,0,.67.95,32.26,1.44,32.4,0,.29.05.59.09.88,1,13.41,2.25,26.83,4.53,40.08,2.38,13.92,6.71,26.83,11.06,40.2,2.21,6.81,3.3,16.2-3.8,20.66-5.61,3.51-13,2.52-19.19,1.4-13.36-2.42-48.72-3-56.55-3"/><path class="cls-3" d="M249.29,120.42a63.92,63.92,0,0,1,5.4,6.44c1.51,1.33,3,2.72,4.39,4.21.34-.86.73-1.69,1.12-2.53.62.46,1.25.87,1.88,1.3-.46,1-.92,2-1.31,3.06.44.5.86,1,1.29,1.52.22,0,.44-.08.65-.1,0,.08.08.15.13.25a1.47,1.47,0,0,0,.48.69l.94.76a2.31,2.31,0,0,0,.49.31c-.24,0-.44.07-.68.12a37.2,37.2,0,0,0,5.66,2.69l1.61,0c2.9,0,5.86.05,8.81.17A98.46,98.46,0,0,0,291.8,143c.6.17,1.19.3,1.81.44,2.24.51,4.51,1,6.76,1.4l3.56.7c2.2.42,4.38.85,6.56,1.32.35.09.69.18,1.05.24-.18.63-.36,1.26-.56,1.88"/><path class="cls-3" d="M314.68,147.79c-47.06-20.64,1.67.41,2.5.65,0,.65,0,1.28,0,1.92,0,.11,0,.17,0,.26-.05.36-.13.71-.2,1.07-3.48,2.17-6.83,4.52-10.58,5.59a4,4,0,0,1-1.36.56c-1,.17-2,.38-2.93.58-.53.2-1.06.43-1.6.61-6.56,2.44-13.73,3.51-20.82,4.43-4.44.87-8.89,1.64-13.35,2.28-3.05.45-6.08.82-9.15,1.18l-7.37,1.16a103.31,103.31,0,0,1-15.25,1.16h-.44c-1.25,0-2.46-.05-3.68-.14l-.5,0h0q-3.3.18-6.61.24c-1.13,0-2.25.06-3.37.06s-2,0-3.09,0a68.22,68.22,0,0,1-12.06,1h-.3a43.6,43.6,0,0,1-9.92-1.19A227.71,227.71,0,0,1,152.4,162c-7.87-2-16-3.88-23.62-6.69-1.43-.51-3.15-1.09-4.79-1.84-4-1.38-7.61-4.63-11.29-7.48l-1.28-.63a9.31,9.31,0,0,1-3.08-2.4,15.7,15.7,0,0,0-4.26-1.75h0a10.64,10.64,0,0,0-2.47-.31,9.87,9.87,0,0,0-1.22.07h0a13,13,0,0,0-1.34.18,1.46,1.46,0,0,1-1.11-.15c-1.09-.61-1.24-2.52.27-2.84a16.94,16.94,0,0,1,2.06-.33h0a16.83,16.83,0,0,1,2.25,0,15.34,15.34,0,0,1,1.82.29,2.05,2.05,0,0,1,.78-.66,104.58,104.58,0,0,1,10.36-3.53c1.18.29,2.33.56,3.53.78a45.69,45.69,0,0,0,26.79-2.64,51,51,0,0,0,7.68-4.07c1.09-.7,2.17-1.43,3.2-2.2.28,0,.53.07.8.09,1.09-.44,2.17-.94,3.24-1.48.21-.09.43-.21.63-.31,1.48-.77,2.95-1.58,4.36-2.47"/><path class="cls-4" d="M307.78,74.52a22.9,22.9,0,0,1-.7,5,35.12,35.12,0,0,1-1.64,5.06,110.76,110.76,0,0,1-5.62,11.74,178.08,178.08,0,0,1-12.33,19.86,22.63,22.63,0,0,0-2.71-1.25c-.59-.22-1.21-.42-1.8-.59a.7.7,0,0,0,.13-.33,214.67,214.67,0,0,1,5.69-23.48c2.06-6.7,6.22-25.18,16.52-19.34C307.39,71.47,308.2,72.59,307.78,74.52Z"/><path class="cls-4" d="M287.74,117.24l-.66-.37a22,22,0,0,0-2.6-1.19c-.57-.21-1.16-.41-1.74-.57l-1.12-.32.65-1A216.79,216.79,0,0,1,288,90.23c.18-.61.39-1.31.61-2.08C290.35,82.1,293.28,72,299,69.66a7.42,7.42,0,0,1,6.6.67,3.8,3.8,0,0,1,2.61,1.47,3.56,3.56,0,0,1,.41,2.82,23.67,23.67,0,0,1-.73,5.06,37,37,0,0,1-1.66,5.16,111.25,111.25,0,0,1-5.67,11.83,177.63,177.63,0,0,1-12.39,20ZM284,113.72c.36.11.71.24,1.06.37a23.06,23.06,0,0,1,2.15.94,177.57,177.57,0,0,0,11.84-19.16,111.58,111.58,0,0,0,5.58-11.65,35.07,35.07,0,0,0,1.6-4.94,22.58,22.58,0,0,0,.68-4.79l0-.16a2,2,0,0,0-.14-1.57,2.29,2.29,0,0,0-1.62-.78l-.29-.1a5.79,5.79,0,0,0-5.24-.64c-5,2-7.76,11.63-9.42,17.38l-.62,2.11A212.12,212.12,0,0,0,284,113.72Z"/><path class="cls-3" d="M165.67,121.61c5.37-3.41,21.78-23,27.32-26.33,4.48-2.73,9.28-1.82,13.24,1.45,3.06,2.52,5,6.09,7.88,8.8,3.44,3.29,7.58,4.6,12.13,5.44,7.1,1.32,13.76,2.4,19.76,6.69.75-.09,71.06,31.32,71.81,31.24"/><path class="cls-4" d="M295.89,135.78s-.07,0-.09,0a20.63,20.63,0,0,1-.44,2.37c0,.4,0,.8,0,1.2a41,41,0,0,1-2.76,8.25l-.15-.1c-1.94-2.17-4.75-2.93-7.63-3.1-7.17-2-15-2.12-22.5-2.17h-1.42a31.61,31.61,0,0,1-4.95-2.34l.59-.1a1.92,1.92,0,0,1-.42-.26l-.84-.66a1.27,1.27,0,0,1-.41-.6c0-.08-.08-.15-.12-.22l-.56.09c-.37-.45-.75-.89-1.14-1.31a45,45,0,0,1,6.93-12h.45a7.4,7.4,0,0,1,2-2.45l0,0h-.24c5.67-5.67,13.12-8.92,21.77-6.28a19.2,19.2,0,0,1,5.47,2.64,1.06,1.06,0,0,0,.39.54,14.66,14.66,0,0,1,3.18,3,16.39,16.39,0,0,1,2.32,5.06,1.66,1.66,0,0,1,.29.77,3,3,0,0,1,0,.31c.11.86.19,1.73.24,2.6H296A25.51,25.51,0,0,1,295.89,135.78Z"/><path class="cls-4" d="M292.94,148.9l-1.15-.8c-1.53-1.7-3.83-2.62-7-2.81l-.18,0c-7.24-2-15.23-2.09-22.28-2.14l-1.71-.07a32,32,0,0,1-5.09-2.4l-2-1.2,1-.15a1.86,1.86,0,0,1-.21-.28l-.41.07-.32-.37c-.37-.44-.73-.87-1.12-1.29L252,137l.2-.49a45.12,45.12,0,0,1,7.07-12.23l.25-.31h.34a6,6,0,0,1,.52-.76h-.26l1.45-1.46c4.68-4.68,12.4-9.61,22.62-6.5a20.59,20.59,0,0,1,5.71,2.76l.23.17.08.26a17.94,17.94,0,0,1,3.45,3.34,17.54,17.54,0,0,1,2.43,5.24,2.54,2.54,0,0,1,.35,1l0,.18c.08.74.15,1.42.2,2.07l.1.7a25.34,25.34,0,0,1-.07,4.85l0,.31-.1.1q-.15,1-.39,2l0,1.28a41.64,41.64,0,0,1-2.81,8.42Zm-8-5.31a11.94,11.94,0,0,1,7.34,2.61,40.33,40.33,0,0,0,2.21-6.9l0-1.32a22,22,0,0,0,.43-2.27l.11-.37a22.82,22.82,0,0,0,.08-3.41h0l-.1-.8c-.05-.85-.13-1.7-.23-2.55l0-.19a1,1,0,0,0-.17-.51l-.11-.25a15.59,15.59,0,0,0-2.2-4.8,13.56,13.56,0,0,0-3-2.84,2,2,0,0,1-.59-.68,18.56,18.56,0,0,0-5-2.39c-8.35-2.54-14.94.79-19.36,4.62h.07L263.07,123a7.06,7.06,0,0,0-1.9,2.25l-.23.49h-.57a43.4,43.4,0,0,0-6.35,11l.49.57.14,0,.58,0,.44.87a.37.37,0,0,0,.14.2l.82.65a.8.8,0,0,0,.22.13l2.39,1.18-.72.12c.9.43,1.77.78,2.53,1.08h1.25C269.43,141.47,277.5,141.52,284.94,143.59Z"/></g></svg>