<svg xmlns="http://www.w3.org/2000/svg" viewBox="0 0 414.29 427.22"><defs><style>.cls-1{fill:#042d2d;}.cls-2{fill:#cee4dc;}.cls-2,.cls-3{stroke:#042d2d;stroke-miterlimit:10;}.cls-3{fill:#e1ac38;stroke-width:1.2px;}</style></defs><g id="Capa_1" data-name="Capa 1"><rect class="cls-1" x="121.64" y="78.15" width="148.28" height="270.92" rx="12.43"/><path class="cls-2" d="M254.33,190c-1.21,37.57-3.67,48.29-2.22,70.58.36,5.49.29,11,1,16.47,1.28,10.33.19,16,.64,30.18.12,3.67.24,6.68.32,8.63-1.95,0-5.08,0-8.95,0-7.91-.08-10.8-.31-16-.29-6.1,0-10.29.64-13.72.61-9.93-.08-26.41-.5-36.14.9-11.76,1.69-31.23,2.76-43-.9.38-7.59.9-19.13,1.26-33.26.27-11.22.24-15.95.52-41.2.24-21.45.36-32.18.51-38.45.74-29.32,1.61-27.28,1.53-44.54,0-11.58.16-23.16,0-34.74-.08-5.17.56-10.34.55-15.52,0-5.9-.27-7.85,1.17-9.59,2.33-2.82,6.44-1.87,16.2-1.36s2.6-.58,27.36.07c11.31.29,9.6.44,14.33.47,26.78.21,40.16.32,48.95-.93,1.19-.16,3.52-.52,5.43.79,4.29,2.94,2.78,11.68,1.92,19.28-1.15,10.16-.11,20.46-.81,30.66C254,164.75,255.23,162.06,254.33,190Z"/><circle class="cls-3" cx="195.77" cy="330.41" r="9.65"/><path class="cls-1" d="M181.44,207.84,192,218.37a1.81,1.81,0,0,0,1.94.11c.38-.17,1.23-.81.74-1.3l-10.53-10.54a1.81,1.81,0,0,0-1.94-.1c-.38.17-1.23.8-.74,1.3Z"/><path class="cls-1" d="M194.76,217.58A124.33,124.33,0,0,1,212,190.79c.45-.53-.39-.76-.77-.77a2.52,2.52,0,0,0-1.91.77A125.76,125.76,0,0,0,191.87,218c-.28.59,1,.58,1.23.55a2.1,2.1,0,0,0,1.66-.94Z"/></g></svg>