<svg xmlns="http://www.w3.org/2000/svg" viewBox="0 0 414.29 427.22"><defs><style>.cls-1{fill:#c86d1c;stroke:#042d2d;stroke-miterlimit:10;stroke-width:1.2px;}</style></defs><g id="Capa_1" data-name="Capa 1"><path class="cls-1" d="M264.83,227a30.33,30.33,0,0,1-3.24,8.8c-16.34,28-31.14,56.74-45.35,85.83a41.4,41.4,0,0,1-8.06,11.56c-4.91,4.85-7.5,5.94-14.26,5.89-11.78-.13-19.27-6.26-20.12-18.05-1.91-26.58.68-52.2,18.1-74.19,4.09-5.17,7.72-10.71,11.5-16.12,7.91-11.31,19-18,31.77-22.48,3.37-1.17,6.69-1.69,10.13-.41,3.84,1.42,7.75,2.59,11.51,4.13C263.66,214.71,266.4,219.71,264.83,227Z"/><path class="cls-1" d="M303.92,273.49c.24,18.71-5.41,35.25-17.51,49.59-3.65,4.31-7.39,8.59-10.59,13.24C268.5,347,258.16,353,246.08,356.51c-7.33,2.15-14.45.41-21.21-2.05-5.26-1.91-6.91-6.89-7-12.3-.18-7.84,4-13.75,8.73-19.29a261.51,261.51,0,0,0,29.58-42.47c3.87-6.86,7.5-13.79,9.3-21.55,1.45-6.2,4.61-11.71,8.28-16.82,5.67-7.91,12.84-8.5,19.93-1.79,5.75,5.44,8.3,12.52,9.42,20.09C303.7,264.67,303.66,269.12,303.92,273.49Z"/><path class="cls-1" d="M110.37,141c.15-10.13,4.15-19,9.68-27.12C133,95,150.69,81.65,171.4,72.38c9.48-4.25,18.93-3.44,27.66,2.86,8.57,6.18,11.29,13.86,7.95,23.85a27.76,27.76,0,0,1-11.08,14.85c-16,10.41-29.05,23.71-40.63,38.82-7.06,9.23-16.32,14.35-28.86,10.32C115,159.42,110.16,153.29,110.37,141Z"/><path class="cls-1" d="M171.77,187.39c-3.09-.32-5.67-.25-8.06-.89-10.1-2.67-14.16-12.38-9.07-21.51,3.3-5.91,8.49-10,13.77-14.05q12-9.13,24-18.35a114,114,0,0,0,13.76-12.88c7.06-7.66,13.55-9.35,20.89-5.86,6.27,3,10.71,12.83,8.6,21.24-1.89,7.59-4,15.37-8.52,21.86C213.62,176.34,194.6,185.9,171.77,187.39Z"/></g></svg>