<svg xmlns="http://www.w3.org/2000/svg" viewBox="0 0 414.29 427.22"><defs><style>.cls-1{fill:#c86d1c;}.cls-1,.cls-2{stroke:#042d2d;stroke-miterlimit:10;}.cls-2{fill:#e1ac38;stroke-width:1.2px;}.cls-3{fill:#06352c;}</style></defs><g id="Capa_1" data-name="Capa 1"><path class="cls-1" d="M263.63,167.32c0,1.62-.42,2.17-1.8,2.11a67.82,67.82,0,0,0-7.81,0c-1.81.13-2.12-.75-2.11-2.66,0-10.26.21-20.53-.18-30.76-.93-24.69,7.33-41.49-38.53-50.6-35.22-7-49.18,13.94-54.46,44a80.18,80.18,0,0,0-.82,14c0,7.86,0,15.73,0,23.58,0,1.88-.44,2.51-2,2.42-2.68-.15-5.37-.08-8.05,0-1,0-1.68-.16-1.64-1.68.27-12.26-.63-24.56.53-36.79,2.72-28.48,22.14-53.13,46.12-58.7C224,65,253.65,86.7,261.77,122.64c2.09,9.21,1.86,18.6,1.84,28C263.61,156.2,263.56,161.76,263.63,167.32Z"/><path class="cls-2" d="M297.52,166.51V307.74c0,7.2-2.21,9.37-9.49,9.37H121.53c-7,0-9.29-2.23-9.29-9.28V166.6c0-7.07,2.38-9.41,9.52-9.41H288.19C295.1,157.19,297.52,159.6,297.52,166.51Z"/><path class="cls-3" d="M214.13,234a7.37,7.37,0,0,0-2.28,2.21,14,14,0,0,0-2.94,7.26c-1.15,8.08,3.44,13.06,2.33,22-.27,2.2-.88,4.66-2.82,6a6.21,6.21,0,0,1-3.52,1c-3.71,0-6.36-2.82-6.38-7-.05-8.72-.08-17.44,0-26.16a10.44,10.44,0,0,0-.73-3.32c-1.37-3.91-3.85-5.34-5.87-7.74-2.9-3.44-4.91-8.93-3.84-14a15.52,15.52,0,0,1,5.85-8.79A17.47,17.47,0,1,1,214.13,234Z"/></g></svg>