<svg xmlns="http://www.w3.org/2000/svg" viewBox="0 0 414.29 427.22"><defs><style>.cls-1{fill:#06352c;}.cls-2{fill:#e1ac38;stroke-width:1.2px;}.cls-2,.cls-3{stroke:#042d2d;stroke-miterlimit:10;}.cls-3{fill:#c86d1c;}</style></defs><g id="Capa_1" data-name="Capa 1"><path class="cls-1" d="M107.68,307.71c-14.46,1.68-26.32-3.65-34.29-15.88s-7.84-25-.79-37.8c1.34-2.44,2.86-3.39,5.76-2.78,4.91,1,9.91,1.63,15.15,2.45-11.75,10.62-14,21.7-6.59,31.27a20.63,20.63,0,0,0,27.8,4.43c10.13-6.92,11.47-18.21,3.35-32l17,2.47c2.25.33,2.29,2.23,2.72,3.82C143.24,284,128.93,305.23,107.68,307.71Z"/><path class="cls-1" d="M342.64,278.24a35.39,35.39,0,0,1-35.17,36,35.89,35.89,0,0,1-36.3-35.49c0-3.5.83-5.44,4.75-4.82a22.53,22.53,0,0,0,3.39,0h1.28c5.62,0,5.62,0,5.85,5.45A20.48,20.48,0,0,0,307.81,299c11-.32,19.93-9.34,19.41-20.44-.2-4.38,1.34-5,4.86-4.64a27.34,27.34,0,0,0,5.93,0C341.47,273.45,342.62,274.65,342.64,278.24Z"/><path class="cls-2" d="M319.72,199.32c-1,1.25-2.67.65-4,.66q-22.1,0-44.16,0H227.79c-6.3,0-10.56-4.94-10.85-12.51-.25-6.52,3.5-10.81,10.13-11.06,19.38-.73,38.76-1.29,58.12-1.93q11.69-.39,23.35-.81a18.82,18.82,0,0,1,6.71.71c4.8,1.6,8.82,4.15,9.88,9.47C326.38,190,323.33,194.82,319.72,199.32Z"/><path class="cls-3" d="M362.25,271.36c0,3.31-1.39,4.69-4.59,4.51-.85,0-1.7,0-2.55,0q-99.85,0-199.69.08c-6,0-9.92-2-13.42-7-8.35-11.77-17.21-23.18-26.06-34.59-2.68-3.48-3.15-6.45-1.49-10.74,10.41-26.74,20.73-53.52,31.93-80,3.19-7.52,1.19-13.61-4.27-16.08a13.19,13.19,0,0,1-1.68.1h-19a13.66,13.66,0,0,1-13.62-13.62V100.68a13.66,13.66,0,0,1,13.62-13.62h11.65a25.43,25.43,0,0,1,20.6,10.36,27.76,27.76,0,0,1,5.25,14c1.31,13.44-1.15,26.5-3.85,39.55-3.15,15.26-9,29.78-11.91,45.1s-3.15,30.65,2,45.68A57.82,57.82,0,0,0,150,252.1c4.63,7.79,10.4,12.8,20.56,11.86,9.83-.89,19.82.08,29.71-.35,19.64-.87,33.09-16.05,32.19-35.78a71.32,71.32,0,0,0-7.12-28.13h4.94c25.77,0,51.54,0,77.33,0a17.69,17.69,0,0,1,7.75,1.69c23.42,10.83,39.77,27.62,45.36,53.55A82.61,82.61,0,0,1,362.25,271.36Z"/><path class="cls-2" d="M143.57,271.09c-8.71-1.29-16.93-2.49-25.14-3.72-17.2-2.57-34.41-5.12-51.59-7.81-1.53-.24-3.86.29-4.46-1.54s1.36-3,2.46-4.15q20.49-22.26,50.49-18c1.55.23,2.94.43,3.94,2,7.06,11,15.48,20.91,23.32,31.3A13.18,13.18,0,0,1,143.57,271.09Z"/></g></svg>