<svg xmlns="http://www.w3.org/2000/svg" viewBox="0 0 414.29 427.22"><defs><style>.cls-1{fill:#cee4dc;fill-rule:evenodd;}.cls-1,.cls-2{stroke:#042d2d;stroke-miterlimit:10;stroke-width:1.2px;}.cls-2{fill:#c86d1c;}.cls-3{fill:#042d2d;}</style></defs><g id="Capa_1" data-name="Capa 1"><path class="cls-1" d="M356.63,232.88a54.71,54.71,0,0,1-9.49,28.66,42.72,42.72,0,0,1-23.56,17.23,59.35,59.35,0,0,1-9.74,1.94,34.49,34.49,0,0,1-9.25-.25,52,52,0,0,1-14.25-4.93A91.36,91.36,0,0,1,279.5,269c1-2.51,2-5.07,2.93-7.68.57.5,1.17,1,1.77,1.42a40.74,40.74,0,0,0,10.36,5.77c13,4.8,25.27,2.85,35-3.43,9.48-6.16,16.46-16.6,18.78-29.23,1.75-9.58-.33-19.3-5.41-26.33-5.44-7.55-14.19-12.26-25.65-10.83L301.9,204l-12.31,7.83c0-2.19,0-4.37-.11-6.54a48.2,48.2,0,0,1,8.6-6.28,59.94,59.94,0,0,1,10.14-4.57l15.76-3.1c11.13.5,19.52,5.31,24.94,12.72C354.56,211.75,357.11,222,356.63,232.88Z"/><path class="cls-1" d="M302.44,232.25a127.5,127.5,0,0,1-4.09,27.07,118.18,118.18,0,0,1-9.12,23.43,82.63,82.63,0,0,1-14.53,19.79c-15.67,15.57-38,25.33-61.11,28S167,328.9,148.68,316c-9.66-6.81-17.63-17.45-23.74-29.14a126.93,126.93,0,0,1-12.55-36.76,174.27,174.27,0,0,1-2.18-31.94c.28-14.61,2-29.15,4.09-43.81,32.84-.19,65.67-2.26,98.5-3.05,14.47-.35,29-.44,43.45,0l36.82,1.83c1.12,0,4.49-.05,7.11-.11l1.28,16.72C302.32,203.28,303.19,217.94,302.44,232.25Z"/><ellipse class="cls-2" cx="206.74" cy="170.96" rx="93.45" ry="21.51"/><path class="cls-3" d="M171.31,133c2.2-5.67,4.16-11.44,3.33-17.61-.68-5-2.9-9.62-5.25-14-2.46-4.61-5.15-9.16-6.64-14.2a30.9,30.9,0,0,1,.41-17.79c2-6.72,5.63-12.84,9.31-18.77.42-.69-.66-1.32-1.08-.64-6.23,10-12.57,21.44-10.7,33.68,1.6,10.56,9.41,18.67,12.09,28.83a23.63,23.63,0,0,1,.54,9.76,52.59,52.59,0,0,1-3.21,10.45c-.29.75.92,1.07,1.2.33Z"/><path class="cls-3" d="M240.21,133c2.19-5.67,4.15-11.44,3.32-17.61-.68-5-2.89-9.62-5.25-14-2.46-4.61-5.15-9.16-6.63-14.2a30.9,30.9,0,0,1,.4-17.79c2-6.72,5.63-12.84,9.31-18.77.42-.69-.66-1.32-1.08-.64-6.22,10-12.57,21.44-10.7,33.68,1.6,10.56,9.41,18.67,12.09,28.83a23.47,23.47,0,0,1,.54,9.76A52.59,52.59,0,0,1,239,132.68c-.29.75.92,1.07,1.21.33Z"/><path class="cls-3" d="M206.29,131.46a26.85,26.85,0,0,0,.24-21.38c-2.92-6.93-8.61-14.13-5.79-22.06.27-.76-.94-1.08-1.21-.33-2.58,7.26,1.66,14.2,4.76,20.5,3.51,7.13,4.26,15.27.92,22.64-.33.72.75,1.36,1.08.63Z"/></g></svg>