<svg xmlns="http://www.w3.org/2000/svg" viewBox="0 0 169.68 73.44"><defs><style>.cls-1{fill:#f5f4f0;}</style></defs><g id="Capa_1" data-name="Capa 1"><path class="cls-1" d="M47.07,31.48V30c.37-.14.23-.47.23-.71a20.56,20.56,0,0,1,2.21-8.75,22.12,22.12,0,0,1,7.29-8.7A23,23,0,0,1,66.73,7.8c.73-.11,1.55.14,2.22-.39H72c.78.54,1.69.24,2.53.4a23.92,23.92,0,0,1,9.6,4.05c.61.43,1,.55,1.64.06a23.88,23.88,0,0,1,9.66-4c.78-.14,1.69.2,2.37-.47h3.1c0,.38.32.29.53.31a22.58,22.58,0,0,1,15,7.38,22.84,22.84,0,0,1,5.88,12c0,.2,0,.43.31.43v6.37c-.31,0-.28.23-.31.43a22.36,22.36,0,0,1-9.11,15,22.84,22.84,0,0,1-20.06,3.73,21.88,21.88,0,0,1-7.36-3.53,1.07,1.07,0,0,0-1.48,0,21.94,21.94,0,0,1-7.6,3.66,22.68,22.68,0,0,1-11,.33A23.27,23.27,0,0,1,47.46,34.41C47.31,33.43,47.62,32.39,47.07,31.48Z"/><path class="cls-1" d="M115.38,66a3.42,3.42,0,0,1-2.72-2.33,3.34,3.34,0,0,1,.83-3.62,3.06,3.06,0,0,1,4-.25c0-.76,0-1.42,0-2.08s.22-.79.82-.78.86.07.85.76c0,2.33,0,4.65,0,7,0,1.15-.23,1.42-1.27,1.07A2.16,2.16,0,0,0,116,66Zm2.28-3.43a1.92,1.92,0,0,0-1.83-1.92,2,2,0,0,0-1.69,2,1.83,1.83,0,0,0,1.8,1.8A2.07,2.07,0,0,0,117.66,62.6Z"/><path class="cls-1" d="M65,66c-.61-.37-1.36-.34-1.92-1a3.54,3.54,0,0,1-.36-4.53,3.15,3.15,0,0,1,3.93-1c.52.23.83-.26,1.33-.18s.75.2.74.78c0,1.5,0,3,0,4.51,0,1.11-.38,1.49-1.36,1.07-.79-.34-1.3.13-1.93.26Zm.53-1.51a2.24,2.24,0,0,0,1.72-2,2.18,2.18,0,0,0-1.91-1.86,2,2,0,0,0-1.71,2A2,2,0,0,0,65.56,64.52Z"/><path class="cls-1" d="M103,66c-.23-.44-.68-.16-1-.28a3.43,3.43,0,0,1-1.81-4.37,3,3,0,0,1,4-1.91,1.77,1.77,0,0,0,1.32,0c.67-.24,1.1,0,1,.91a35.72,35.72,0,0,0,0,4.51c.06,1-.49,1.12-1.09.86-.79-.33-1.37.07-2,.26Zm2.07-3.47a1.81,1.81,0,0,0-1.67-1.88,2.1,2.1,0,0,0-1.84,1.93,2.17,2.17,0,0,0,1.9,1.9A1.8,1.8,0,0,0,105.07,62.56Z"/><path class="cls-1" d="M85.05,66c-.93-.38-2-.51-2.52-1.58-.43-.83-.6-3.1.22-4.05a3.25,3.25,0,0,1,3.67-.94,3,3,0,0,1,1.71,3.61c-.14.39-.43.27-.68.27H84.36c-.18,0-.45-.09-.5.18s.13.3.23.42a1.73,1.73,0,0,0,2.46.27c.64-.4,1-.14,1.27.38.38.71-.35.72-.66,1s-1.09,0-1.49.43Zm1.72-4.11c-.91-1.53-1.81-1.67-2.69-.59-.11.12-.29.22-.23.42s.28.16.43.16Z"/><path class="cls-1" d="M72.25,66c-.58-.42-1.35-.19-2-.58-.4-.25-.59-.38-.31-.83s.27-.86.93-.5a2.75,2.75,0,0,0,2.51.28.66.66,0,0,0,.41-.52c0-.18-.25-.25-.41-.37-.49-.35-1.06-.08-1.59-.26-1.45-.49-1.93-1-1.83-2.11a2.37,2.37,0,0,1,2.31-1.89,4.79,4.79,0,0,1,2.19.31c.28.11,1,0,.7.78s-.51,1-1.28.66c-.57-.25-1.17-.56-1.83-.14-.2.13-.47.22-.41.5s.29.31.55.36a9.4,9.4,0,0,1,2.16.43,1.8,1.8,0,0,1,1,2.11c-.08.78-.62,1.08-1.27,1.4-.4.19-.91-.07-1.2.37Z"/><path class="cls-1" d="M79.27,66c-1.75-.74-1.85-.91-1.85-2.94,0-.51,0-1,0-1.54s-.07-.75-.6-.67-.66-.26-.65-.74,0-.77.58-.69c.82.12.7-.46.66-.91-.06-.66.07-1,.86-1s.88.35.78.93c-.15.88.3,1,1,1,.44,0,1.06-.28,1,.64,0,.67-.24.87-.83.76-1.06-.19-1.43.24-1.27,1.27a7.1,7.1,0,0,1,0,1.13c0,1.08.31,1.41,1.27,1.06s.87.16,1,.71c.24.77-.48.55-.76.76s-.55-.13-.7.23Z"/><path class="cls-1" d="M97,66c-.5-.43-1.18-.21-1.76-.58-1.48-1-1.53-2.84-1.16-4.26s2.5-2.15,3.77-1.91a6.36,6.36,0,0,1,1,.32c.45.15.72.37.44.91s-.39.8-1,.55c-1.38-.56-2.33-.23-2.75.82A1.9,1.9,0,0,0,96,64a1.73,1.73,0,0,0,2.13.26c.33-.18.71-.62,1.07.08.45.85.37,1.1-.61,1.43-.31.1-.71-.17-.92.25Z"/><path class="cls-1" d="M51,62.65a19.43,19.43,0,0,0,0-2.16c-.09-.87.23-1.21,1.07-1a3.24,3.24,0,0,0,1.63-.16c1-.3,1.93.69,2.73.62s1.68-.82,2.66-.64a2.28,2.28,0,0,1,2,2.4c0,1.16,0,2.33,0,3.49,0,.72-.39.64-.85.65s-.84,0-.81-.69A28,28,0,0,0,59.38,62,1.18,1.18,0,0,0,58,60.79a1.34,1.34,0,0,0-1.26,1.46c0,.86,0,1.72,0,2.57,0,.57.08,1-.8,1s-.88-.34-.85-1c0-.93,0-1.85,0-2.78s-.42-1.35-1.18-1.31a1.21,1.21,0,0,0-1.32,1.33c0,1,0,2,0,3.08,0,.62-.3.66-.76.62S51,66,51,65.22,51,63.51,51,62.65Z"/><path class="cls-1" d="M108.17,62.66V60.5c0-1.09.16-1.29,1.24-1a1.5,1.5,0,0,0,1.26-.14,2.56,2.56,0,0,1,1-.1c.29,0,.64-.08.59.44-.09.78-.34,1.14-.8,1.08-1.13-.15-1.64.28-1.66,1.43,0,.92,0,1.85,0,2.77,0,.67-.18.85-.86.87s-.83-.32-.8-.92C108.19,64.17,108.17,63.42,108.17,62.66Z"/><path class="cls-1" d="M89.59,62.66c0-.78,0-1.57,0-2.35,0-.62.14-1.08.82-.83a2.56,2.56,0,0,0,1.85-.19c.36-.12.9-.23,1.17.1s0,.75-.11,1.15-.24.34-.51.31A1.38,1.38,0,0,0,91,62.34c0,.95,0,1.91,0,2.86,0,.63-.33.62-.77.62s-.71-.06-.69-.6C89.62,64.37,89.59,63.52,89.59,62.66Z"/></g></svg>