<svg xmlns="http://www.w3.org/2000/svg" viewBox="0 0 286.1 74.7"><defs><style>.cls-1{fill:#f5f4f0;}</style></defs><g id="Capa_1" data-name="Capa 1"><path class="cls-1" d="M64,64.58a54.22,54.22,0,0,1-18.79-3.25,33.49,33.49,0,0,1-12-7.34A22.2,22.2,0,0,1,26.2,38.81,19.44,19.44,0,0,1,29,27a25.81,25.81,0,0,1,5.66-6.27A41.38,41.38,0,0,1,50.3,13.19,56.3,56.3,0,0,1,70,11.63a48.9,48.9,0,0,1,19.18,5.56,29.44,29.44,0,0,1,10.57,9.13,18.6,18.6,0,0,1,3.32,10.14c.29,9.12-3.87,15.83-11.16,20.85a40.33,40.33,0,0,1-14.64,6A62.59,62.59,0,0,1,64,64.58Zm-.45-4.47a59.46,59.46,0,0,0,9.75-.66,46.48,46.48,0,0,0,15.39-5.07,27.93,27.93,0,0,0,9.49-8.09,16.6,16.6,0,0,0,3.32-10.44c0-.42-.14-.51-.53-.4-.81.22-1.63.39-2.44.6a97.84,97.84,0,0,0-11.83,3.86c-.37.15-.51.24-.31.68a3.1,3.1,0,0,1-.1,3,4,4,0,0,1-3.88,2c-.37,0-.49,0-.5.42a2.85,2.85,0,0,1-.66,1.69,4.54,4.54,0,0,1-4,1.77c-.2,0-.33-.06-.43.21a4.06,4.06,0,0,1-4.61,2.58c-.2,0-.36-.07-.5.14a3.17,3.17,0,0,1-2.08,1.19,6.71,6.71,0,0,1-4.35-.79c-.23-.11-.38-.19-.64,0a4.39,4.39,0,0,1-6.83-1.3c-.13-.23-.23-.28-.48-.23a4.15,4.15,0,0,1-4.44-2A.42.42,0,0,0,52.5,49a4.26,4.26,0,0,1-4.6-3.08c-.08-.26-.17-.35-.46-.33a3.7,3.7,0,0,1-3.9-4.69.59.59,0,0,0-.32-.78,23.54,23.54,0,0,0-3.53-1.73,75.79,75.79,0,0,0-11.26-3.23c-.67-.15-.67-.15-.7.54a16.61,16.61,0,0,0,3.74,11.23A29,29,0,0,0,41.78,55,50.39,50.39,0,0,0,63.59,60.11Zm-8.4-35.94a14.87,14.87,0,0,0-2.43.61,11.78,11.78,0,0,1-5.95.28A60.87,60.87,0,0,1,36.3,21.9a.73.73,0,0,0-.85.13,31,31,0,0,0-2.3,2.14,19.39,19.39,0,0,0-5,8.55c-.12.46-.07.66.43.79,2.39.64,4.82,1.14,7.19,1.88a33.19,33.19,0,0,1,8.5,3.6c.27.18.38,0,.53-.12a3.7,3.7,0,0,1,4.89.25.5.5,0,0,0,.74.09,4.3,4.3,0,0,1,5.46,1.1.69.69,0,0,0,.88.32,3.93,3.93,0,0,1,4.83,3.43c0,.31-.07.74.09.9s.62.14.94.2l.31.07a4.38,4.38,0,0,1,3,5.7c-.12.35-.07.49.25.62a10,10,0,0,0,1.59.55,3.52,3.52,0,0,0,2.39-.26c.51-.25.53-.44.16-.85l-2.75-3c-.21-.24-.43-.53-.15-.83s.55-.1.8.09a4.19,4.19,0,0,1,.33.26c1,.86,1.94,1.77,2.87,2.69a2.23,2.23,0,0,0,2.85.42c.93-.52,1.57-1.43.48-2.6s-2.21-2.47-3.32-3.71a1.61,1.61,0,0,1-.24-.34.41.41,0,0,1,0-.53.44.44,0,0,1,.53-.07,2.65,2.65,0,0,1,.72.52,42.71,42.71,0,0,1,3.36,3.23,2.57,2.57,0,0,0,3.59.32,2,2,0,0,0,.3-3.3L75.15,39.5a1.87,1.87,0,0,1-.39-.49.47.47,0,0,1,.06-.54.42.42,0,0,1,.53-.07,4,4,0,0,1,.68.49c1.69,1.51,3.39,3,5.07,4.55a2.58,2.58,0,0,0,1.29.64,2.73,2.73,0,0,0,2.68-1.26,2.12,2.12,0,0,0-.63-2.51c-4-3.46-8-6.93-12-10.32a28.68,28.68,0,0,0-3.83-2.92,4.21,4.21,0,0,0-4.2-.19,16.18,16.18,0,0,0-2.87,1.82,28.14,28.14,0,0,1-3.39,2.46A6.25,6.25,0,0,1,51.89,31c-1.25-.68-1.35-1.81-.38-2.87l2-2.15Zm11.48-3.43a12.8,12.8,0,0,0-8.14,2.49,55.63,55.63,0,0,0-6,6c-.23.24-.17.44.09.59a2.7,2.7,0,0,0,.7.35,5,5,0,0,0,4.28-.44,21.76,21.76,0,0,0,2.2-1.61,24.44,24.44,0,0,1,3.54-2.52A5.77,5.77,0,0,1,67.6,25a9.68,9.68,0,0,1,3.6,2.1c4.63,3.72,9.07,7.66,13.55,11.56a.75.75,0,0,0,.92.14,85.32,85.32,0,0,1,15.1-4.9c.43-.1.52-.24.42-.66a20.3,20.3,0,0,0-6.9-10.75.45.45,0,0,0-.57-.06c-.46.21-.93.39-1.4.58a22.34,22.34,0,0,1-18.73-.47A17.38,17.38,0,0,0,66.67,20.74Zm26,.44-.37-.3a34.24,34.24,0,0,0-4.51-2.76,50.69,50.69,0,0,0-22.55-5.23,54.74,54.74,0,0,0-10.84.92A45.16,45.16,0,0,0,39.52,19.2a19.76,19.76,0,0,0-2.27,1.5l.35.14a76.47,76.47,0,0,0,8.52,2.54,10.9,10.9,0,0,0,5.38.18A25.4,25.4,0,0,1,57,22.42c.17,0,.28-.13.4-.23a13.55,13.55,0,0,1,8-2.91,18.35,18.35,0,0,1,8.87,1.9C80.43,24.08,86.51,23.89,92.67,21.18ZM49.57,42.07a1.27,1.27,0,0,1-.14-.58A2.32,2.32,0,0,0,45,41a2.29,2.29,0,0,0,.75,2.72,2.36,2.36,0,0,0,2.83,0c.13-.1.22-.36.47-.21s.15.33.12.53a2.38,2.38,0,0,0,0,.46,2.81,2.81,0,0,0,4.27,2.63c.14-.07.28-.17.44-.08s.16.32.15.51a2.12,2.12,0,0,0,1.32,2.08,2.15,2.15,0,0,0,2.46,0c.91-.67.91-.67,1.1.44a2.94,2.94,0,0,0,2.39,2.41,3,3,0,0,0,3.18-1.52A2.93,2.93,0,0,0,64,47.54a2.88,2.88,0,0,0-3.38-.81c-.22.08-.48.25-.68,0s0-.46,0-.69a4.13,4.13,0,0,0,.26-1.39A2.32,2.32,0,0,0,59,42.31a2.56,2.56,0,0,0-3,.22c-.53.44-.66.41-.77-.26a2.31,2.31,0,0,0-1.75-2,3.12,3.12,0,0,0-2.86.59A6.2,6.2,0,0,0,49.57,42.07Z"/><path class="cls-1" d="M203,70.86c-.71-.14-1.42-.25-2.13-.41-3.53-.79-5.55-3.11-6.62-6.51,1.88,0,3.69,0,5.5,0,.27,0,.37.16.51.34a4.15,4.15,0,0,0,7.25-.8,8.51,8.51,0,0,0,.65-4c-.4.43-.69.81-1,1.14-2.23,2.09-6.08,2.26-8.92.36a9.15,9.15,0,0,1-3.87-5.36,16.18,16.18,0,0,1,.31-9.64A7.87,7.87,0,0,1,202,40.37a14.87,14.87,0,0,1,4.61.21,8.42,8.42,0,0,1,6.84,8,118.31,118.31,0,0,1,0,13.58,9,9,0,0,1-7.92,8.62c-.06,0-.11.06-.16.1Zm5.17-19.11a8.56,8.56,0,0,0-1.4-5.26,4,4,0,0,0-6.65.55,11,11,0,0,0-.42,8.07,3.33,3.33,0,0,0,2.75,2.47,4.28,4.28,0,0,0,4.34-1.28A7.55,7.55,0,0,0,208.17,51.75Z"/><path class="cls-1" d="M270.62,23.26c-.15.88-.23,1.78-.44,2.64-1.25,5.22-5,8-10.5,7.86-2.77-.08-5.35-.67-7.34-2.78a11,11,0,0,1-2.82-5.73,13.24,13.24,0,0,1,.56-7.11,9.28,9.28,0,0,1,8.76-6.52,12,12,0,0,1,6.44,1.11c2.79,1.48,4.21,4,4.93,7,.21.82.28,1.68.41,2.52Zm-5.81-.57a8.91,8.91,0,0,0-.69-3.82A4.28,4.28,0,0,0,260,16.22a4.19,4.19,0,0,0-4.25,2.58,9.58,9.58,0,0,0,0,7.78,4.21,4.21,0,0,0,4.32,2.58,4.26,4.26,0,0,0,4.09-2.72A8.94,8.94,0,0,0,264.81,22.69Z"/><path class="cls-1" d="M147.29,26c0,2.52,0,4.62,0,6.72,0,.46-.11.62-.59.61q-1.92-.06-3.84,0c-.51,0-.63-.15-.63-.64q0-5.86,0-11.73a7,7,0,0,0,0-.79c-.3-2.25-1.65-3.45-3.76-3.33a3.61,3.61,0,0,0-3.62,3.77c0,3.89,0,7.78,0,11.67,0,1,0,1-1.07,1s-2.21,0-3.31,0c-.52,0-.67-.13-.67-.66,0-3.93,0-7.87,0-11.8a6.2,6.2,0,0,0,0-.86A3.31,3.31,0,0,0,126,16.84a3.61,3.61,0,0,0-3.58,3.75q0,6,0,12c0,.56-.1.78-.71.75-1.26,0-2.52,0-3.78,0-.43,0-.57-.12-.57-.56,0-4.1-.11-8.22,0-12.32.28-8,7.55-10,12.17-8.06a6.84,6.84,0,0,1,2.5,1.82c.23.27.35.31.64,0,2.65-2.7,5.86-3.13,9.28-1.93,3.27,1.15,4.79,3.75,5.18,7.06A66.35,66.35,0,0,1,147.29,26Z"/><path class="cls-1" d="M157.27,59.59c-.15.22-.07.47-.07.7,0,1.92,0,3.84,0,5.76a2.72,2.72,0,0,1-3,3c-.68,0-1.37,0-2,0-.37,0-.5-.09-.5-.48,0-6.47-.06-12.94,0-19.41.08-4.8,3.38-8.15,8.19-8.65a15.1,15.1,0,0,1,4.55.12,8.57,8.57,0,0,1,6.83,6.3,14.79,14.79,0,0,1-.39,10c-1.11,2.81-3,4.85-6.14,5.35-2.89.46-5.52,0-7.37-2.61C157.37,59.61,157.32,59.61,157.27,59.59Zm-.09-7.91c0,.33.06,1,.15,1.61a7.09,7.09,0,0,0,.35,1.41,4.17,4.17,0,0,0,3.9,3A4,4,0,0,0,165.7,55a9.63,9.63,0,0,0-.1-7.36,4,4,0,0,0-4.12-2.5,4,4,0,0,0-3.82,2.95A11.7,11.7,0,0,0,157.18,51.68Z"/><path class="cls-1" d="M242.13,14.52v-5a4.25,4.25,0,0,1,5.21-4.4c.28,0,.38.16.36.43s0,.35,0,.53q0,9.34,0,18.69a8.41,8.41,0,0,1-6.81,8.58,14.25,14.25,0,0,1-7.33-.29,7.43,7.43,0,0,1-5.13-4.68,14.6,14.6,0,0,1,.84-12.65A8,8,0,0,1,238.36,12,7.64,7.64,0,0,1,242.13,14.52Zm.18,8.55a9,9,0,0,0-.89-4.23,4.11,4.11,0,0,0-3.88-2.31,3.84,3.84,0,0,0-3.77,2.6,10,10,0,0,0,0,7.61,3.7,3.7,0,0,0,3.37,2.48,4.08,4.08,0,0,0,4.15-2A8,8,0,0,0,242.31,23.07Z"/><path class="cls-1" d="M162.51,24.26c-2.32,0-4.64,0-7,0-.46,0-.61.1-.57.59a4.57,4.57,0,0,0,4.54,4.39c1.24.05,2.58.12,3.5-.83a2.85,2.85,0,0,1,2.41-.79c1.22,0,2.43,0,3.65,0,.53,0,.59.16.39.61a8.58,8.58,0,0,1-4.72,4.69,12,12,0,0,1-10.83-.73,8.27,8.27,0,0,1-4.11-5.66,15.38,15.38,0,0,1,.31-8.24c1.31-3.83,4.1-5.88,8.07-6.42a11.88,11.88,0,0,1,5.3.45c3.72,1.21,5.67,3.93,6.36,7.67a21.76,21.76,0,0,1,.21,3.7c0,.46-.13.6-.6.6C167.14,24.24,164.82,24.26,162.51,24.26Zm-2.8-3.63c1.41,0,2.82,0,4.23,0,.34,0,.46-.07.4-.45a4.34,4.34,0,0,0-1.47-2.87,4.73,4.73,0,0,0-7.71,2.79c-.08.41,0,.54.44.53C157,20.62,158.34,20.63,159.71,20.63Z"/><path class="cls-1" d="M226.44,62.44a14.38,14.38,0,0,1-4.05-.53,8.31,8.31,0,0,1-5.21-4.32,12.75,12.75,0,0,1,.47-13.22,8.31,8.31,0,0,1,5.51-3.81,14.16,14.16,0,0,1,6.18,0,8.38,8.38,0,0,1,5.63,4,12.74,12.74,0,0,1,.29,13.23,8.77,8.77,0,0,1-7.43,4.62C227.31,62.41,226.77,62.42,226.44,62.44Zm4.73-11.1a11.65,11.65,0,0,0-.35-2.88,4.52,4.52,0,0,0-4-3.58A4.36,4.36,0,0,0,222,47.55a9.69,9.69,0,0,0,0,7.67,4.22,4.22,0,0,0,4.23,2.62,4.29,4.29,0,0,0,4.16-2.63A9.35,9.35,0,0,0,231.17,51.34Z"/><path class="cls-1" d="M191.75,50.79c0,1.5.06,3,0,4.5a6.58,6.58,0,0,1-4.41,6.19,16.25,16.25,0,0,1-9.12.79c-3.53-.64-5.33-3.35-4.85-6.94.4-3,2.08-4.75,5.32-5.55,1.7-.41,3.44-.51,5.16-.79a5.65,5.65,0,0,0,1.34-.36A1.6,1.6,0,0,0,186.32,47a1.7,1.7,0,0,0-1.23-1.76,6.53,6.53,0,0,0-3.79-.14,2.59,2.59,0,0,0-1.89,2.1c-.09.42-.25.58-.69.57-1.39,0-2.79,0-4.18,0-.48,0-.59-.13-.52-.61.57-3.89,2.68-6,6.62-6.5a14.74,14.74,0,0,1,8,.94A4.84,4.84,0,0,1,191.73,46c.08,1.59,0,3.18,0,4.77Zm-5.43.94a8.9,8.9,0,0,1-3.08,1,10.66,10.66,0,0,0-3.05.81A2.53,2.53,0,0,0,178.8,56a2.33,2.33,0,0,0,1.39,2.22c1.61.74,5.24-.18,5.87-2.66A17.4,17.4,0,0,0,186.32,51.73Z"/><path class="cls-1" d="M225.8,22c0,1.28,0,2.56,0,3.85A7,7,0,0,1,220.47,33a17.36,17.36,0,0,1-8.38.44,5.54,5.54,0,0,1-4.73-5.55c-.15-3.89,1.79-6.22,5.9-7,1.54-.3,3.1-.46,4.65-.69a5.05,5.05,0,0,0,1.33-.37,1.64,1.64,0,0,0,1.12-1.56,1.75,1.75,0,0,0-1.18-1.81,6.25,6.25,0,0,0-4-.11,2.56,2.56,0,0,0-1.73,2.09c-.09.41-.27.52-.67.51-1.34,0-2.69,0-4,0-.64,0-.72-.21-.64-.76A6.74,6.74,0,0,1,214,12a15.13,15.13,0,0,1,8.21.63,5.12,5.12,0,0,1,3.6,5c.05,1.46,0,2.91,0,4.37Zm-5.48,1a9.46,9.46,0,0,1-3.24,1,10.79,10.79,0,0,0-2.73.72,2.61,2.61,0,0,0-1.51,2.88A2.33,2.33,0,0,0,215,29.68a4.78,4.78,0,0,0,1.51-.07,4.09,4.09,0,0,0,3.67-3.38A15.17,15.17,0,0,0,220.32,23Z"/><path class="cls-1" d="M202.7,19.75c-.8,0-1.59,0-2.39,0-.35,0-.49-.11-.58-.45-.55-1.94-1.52-2.78-3.29-2.92a3.86,3.86,0,0,0-4.25,2.46,10.78,10.78,0,0,0,0,7.9,4.2,4.2,0,0,0,6,1.92,3.61,3.61,0,0,0,1.54-2.6c.08-.43.2-.6.66-.59q2.38,0,4.77,0c.51,0,.58.15.49.61a9.2,9.2,0,0,1-8.83,7.64,16.07,16.07,0,0,1-4.21-.3,8.25,8.25,0,0,1-6.36-5.84,14.43,14.43,0,0,1,.23-9.93,8.62,8.62,0,0,1,6.5-5.57,13.56,13.56,0,0,1,8.25.65c3,1.19,4.1,3.62,4.5,6.57.05.39-.14.44-.46.44C204.38,19.74,203.54,19.75,202.7,19.75Z"/><path class="cls-1" d="M172.62,26.81c0-1.88-.1-3.76,0-5.63a9.64,9.64,0,0,1,9.27-9.31c.75-.06,1.5-.08,2.25-.11.37,0,.54.13.53.55,0,1.52,0,3,0,4.57,0,.41-.1.52-.53.47a8.56,8.56,0,0,0-2.37,0A3.94,3.94,0,0,0,178.22,21a13.8,13.8,0,0,0-.15,2c0,3.2,0,6.4,0,9.61,0,.5-.11.68-.65.67-1.41,0-2.83,0-4.24,0-.49,0-.65-.13-.64-.63,0-2,0-3.93,0-5.89Z"/></g></svg>