<svg xmlns="http://www.w3.org/2000/svg" viewBox="0 0 169.68 73.44"><defs><style>.cls-1{fill:#f5f4f0;}</style></defs><g id="Capa_1" data-name="Capa 1"><path class="cls-1" d="M115,64H54.66s0-.1-.07-.1a5.61,5.61,0,0,1-4.08-2.75c-.35-.56-.48-1.22-.78-1.8V14.06a7.82,7.82,0,0,1,1.58-2.88,6.8,6.8,0,0,1,3.21-1.77h60.64s.08.12.13.12A5.68,5.68,0,0,1,118.92,12a8.1,8.1,0,0,1,1,2.62V58.83c0,.05-.12.09-.13.14a5.49,5.49,0,0,1-2.57,4.12A7.83,7.83,0,0,1,115,64ZM94.2,37.19a5,5,0,0,0,4.43-1.73,5.08,5.08,0,0,0,1.08-4.6c-.44-1.84-1.63-2.25-3.3-2.39s-3.59,0-5.39,0a.69.69,0,0,0-.77.6c-.2,1.19-.36,2.39-.56,3.58-.26,1.61-.54,3.21-.8,4.82-.19,1.19-.38,2.38-.56,3.58-.07.44,0,.75.6.72a16.35,16.35,0,0,1,2,0c.49,0,.64-.27.7-.65.16-1,.28-2,.42-3a.77.77,0,0,1,.58-.73A11,11,0,0,1,94.2,37.19ZM59.36,28.43c-1.09,0-2,0-2.87,0a.63.63,0,0,0-.75.59c-.35,2.2-.73,4.41-1.08,6.61-.3,1.84-.56,3.68-.89,5.5-.09.47,0,.59.43.59h1.92c.55,0,.8-.26.88-.8.15-1,.38-1.93.52-2.9.09-.66.49-.8,1-.81s1.33,0,2,0A5,5,0,0,0,63.7,35.9a5.82,5.82,0,0,0,1.55-3.27,3.3,3.3,0,0,0-2.25-4A16.12,16.12,0,0,0,59.36,28.43Zm46.93,12c.12.18,0,.26,0,.36-.16.73,0,.9.73.9.43,0,.86,0,1.29,0,.62.05.87-.29,1-.81.42-2.47.82-4.94,1.23-7.41,0-.36-.07-.57-.48-.56-.59,0-1.18,0-1.77,0s-.85,0-.77.63a.23.23,0,0,1-.16.26s-.15-.08-.21-.14a3.27,3.27,0,0,0-3.44-.94,5.2,5.2,0,0,0-4.29,4.39A3.76,3.76,0,0,0,100.47,41a3.66,3.66,0,0,0,3.69.74A6.45,6.45,0,0,0,106.29,40.46Zm-34.53,0a2.25,2.25,0,0,1,0,.59c-.15.49,0,.65.52.63s.91,0,1.37,0c.87,0,1.06-.22,1.15-1.1.12-1,.3-2.08.46-3.12.2-1.26.43-2.51.62-3.77.08-.51,0-.9-.68-.79a5.06,5.06,0,0,1-1.29,0c-.7-.08-1.07.19-1.07.94-.44-.29-.68-.75-1.15-.91a4.88,4.88,0,0,0-5.17,1.09,5.33,5.33,0,0,0-1.7,5A3.56,3.56,0,0,0,69,41.9,6,6,0,0,0,71.76,40.51Zm7-7.56H78.1c-1,0-1,0-.66,1,.76,2.19,1.51,4.39,2.28,6.57a.66.66,0,0,1-.1.72c-.7,1-1.37,1.94-2,2.94-.44.71-.33.86.47.87h1.58a1,1,0,0,0,.93-.52c1.19-1.79,2.42-3.55,3.64-5.31s2.53-3.64,3.78-5.47c.36-.52.2-.75-.46-.76s-1.14,0-1.71,0a.82.82,0,0,0-.83.44c-.93,1.42-1.9,2.81-2.85,4.22-.09.14-.19.34-.32.31s-.18-.25-.23-.42c-.29-1-.6-2-.9-3.07C80.28,33,80.28,33,78.78,33Zm33.56,8.77c.3,0,.59,0,.89,0a.73.73,0,0,0,.69-.63c.16-1,.27-1.91.42-2.86.25-1.54.52-3.08.77-4.63s.5-3,.73-4.5c.07-.42,0-.71-.57-.67s-1,0-1.58,0a.62.62,0,0,0-.73.6c-.31,2-.65,4-.95,5.95s-.54,3.77-.84,5.65c-.18,1.1-.22,1.09.9,1.09Z"/><path class="cls-1" d="M94.46,31a5.49,5.49,0,0,1,1,.09c1,.33,1.09,1.19.72,2.37a1.49,1.49,0,0,1-1.26,1,9.84,9.84,0,0,1-2,.19c-.39,0-.45-.15-.38-.5.15-.77.28-1.54.37-2.31S93.13,31,94.46,31Z"/><path class="cls-1" d="M58.74,34.7c-.71.23-.78-.13-.66-.72.16-.83.28-1.67.43-2.5a.66.66,0,0,1,.22-.39,4.76,4.76,0,0,1,2.67.32c.61.5.39,1.17.32,1.76a1.54,1.54,0,0,1-1.36,1.39A4,4,0,0,1,58.74,34.7Z"/><path class="cls-1" d="M102.3,37.78A2.66,2.66,0,0,1,105,35a1.94,1.94,0,0,1,2.1,2,2.63,2.63,0,0,1-2.74,2.68C103,39.66,102.19,38.82,102.3,37.78Z"/><path class="cls-1" d="M67.8,37.68a2.65,2.65,0,0,1,3.71-2.45,2.05,2.05,0,0,1,.93,2.33,2.72,2.72,0,0,1-4,1.72A1.62,1.62,0,0,1,67.8,37.68Z"/></g></svg>