<svg xmlns="http://www.w3.org/2000/svg" viewBox="0 0 169.68 73.44"><defs><style>.cls-1{fill:#f5f4f0;}</style></defs><g id="Capa_1" data-name="Capa 1"><path class="cls-1" d="M108.58,56.47a10.11,10.11,0,0,1,1-2.77c2-4.8,4-9.57,6.07-14.36,2.12-5,4.22-10.08,6.34-15.11a3.92,3.92,0,0,1,4-2.69c2.34.09,4.69,0,7,0,.59,0,.85.11,1,.81,1,5.05,2.15,10.08,3.21,15.12s2.11,10.22,3.17,15.34c.21,1,.4,2,.71,3,.17.54,0,.59-.44.59-2.48,0-5,0-7.44,0-.49,0-.74-.23-.78-.61-.11-1.19-.6-2.29-.66-3.48a1,1,0,0,0-1.19-1.08q-4.86.06-9.72,0a1.07,1.07,0,0,0-1.14.81c-.43,1.13-.84,2.27-1.26,3.41a1.18,1.18,0,0,1-1.16.95Zm18.78-25a3.74,3.74,0,0,0-.26.41q-2.11,5.73-4.22,11.45c-.16.43,0,.63.47.63h6c.51,0,.62-.17.51-.69C129,39.44,128.21,35.56,127.36,31.51Z"/><path class="cls-1" d="M52.61,44.77c.88-2.17,1.66-4.06,2.42-6q3.33-8.35,6.62-16.72c.36-.92,1.12-.83,1.79-.73a56.43,56.43,0,0,0,7,.18c1.22,0,1.18,0,.71,1.11-1.82,4.31-3.61,8.64-5.42,13q-2.31,5.51-4.64,11c-1.27,3-2.58,6-3.81,9a1.23,1.23,0,0,1-1.39.85c-2.51,0-5-.06-7.55,0a1.29,1.29,0,0,1-1.51-1.13q-1.38-5.43-2.75-10.85c-1.33-5.18-2.69-10.35-4-15.54-.62-2.52-2.39-3.7-4.68-4.43A50.41,50.41,0,0,0,29.8,22.9c-.42-.09-.93-.19-.83-.9s.67-.44,1-.44c4.9,0,9.79,0,14.69,0a3.75,3.75,0,0,1,4.09,3.29c.67,3.34,1.24,6.69,1.88,10S51.92,41.26,52.61,44.77Z"/><path class="cls-1" d="M101.81,20.72a28.18,28.18,0,0,1,8.41,1.43c.44.13.64.25.52.77-.48,2-.95,4-1.35,6.1-.15.76-.47.74-1.07.55a20.23,20.23,0,0,0-7.06-1.32,6.93,6.93,0,0,0-4.21,1.53A2,2,0,0,0,97.42,33a43.94,43.94,0,0,0,4.59,2.8A19.51,19.51,0,0,1,106.72,39,8.57,8.57,0,0,1,109,46.41a10,10,0,0,1-3.19,6.5,15,15,0,0,1-8.08,3.75,25.51,25.51,0,0,1-4.68.4,32.67,32.67,0,0,1-8.71-1.39c-.91-.29-1.32-.6-1-1.71A56.59,56.59,0,0,0,84.59,48c.13-.73.28-.7.87-.43a17.53,17.53,0,0,0,8.85,1.93,7.75,7.75,0,0,0,3.92-1.21c1.82-1.26,1.57-3,.06-4.18a53.53,53.53,0,0,0-5.91-3.56c-2.28-1.3-4.42-2.82-5.13-5.5A9.55,9.55,0,0,1,89.1,26c2.45-2.95,5.7-4.31,9.39-4.91A14.23,14.23,0,0,1,101.81,20.72Z"/><path class="cls-1" d="M80,21.55h3.92c.49,0,.7,0,.55.67q-2.07,9.09-4,18.22c-1.07,5-2.09,10.08-3.13,15.12a1.05,1.05,0,0,1-1.15.92c-2.54,0-5.09,0-7.64,0-.71,0-.72-.37-.62-.84,1.35-6.13,2.73-12.27,4.06-18.41,1.08-5,2.11-9.93,3.14-14.9.12-.54.31-.82.93-.8C77.34,21.58,78.65,21.55,80,21.55Z"/></g></svg>